# xmcd
#
# Track frame offsets:
#	150
#	3178
#	16105
#	29350
#	44088
#	58594
#	74329
#	90319
#	102868
#	115288
#	130031
#	142692
#	156652
#	170289
#	184135
#	197779
#	208632
#	221017
#	234136
#	245886
#	256552
#	270049
#	284459
#	313553
#	330501
#
# Disc length: 4661 seconds
#
# Revision: 1
# Processed by: cddbd v1.5.2PL0 Copyright (c) Steve Scherf et al.
# Submitted via: EasyCDDAExtractor 16.0.6.1
#
DISCID=54123319
DTITLE=Cuiabanno Lima - Caldas Country Show
DYEAR=2014
DGENRE=Country
TTITLE0=Abertura  Cuiabanno Lima
TTITLE1=Nocoute - Jorge e Mateus
TTITLE2=Oha o que eu te fiz - Duda Duarte e Gabriel
TTITLE3=Que mal te fiz eu - Gusttavo Lima
TTITLE4=Planos - Bruno e Barreto
TTITLE5=Até você voltar - Henrique e Juliano
TTITLE6=É com ela que eu estou - Cristiano Araujo
TTITLE7=Vá sonhando - Isabella de Mari
TTITLE8=Preferência - Cleber e Cauan
TTITLE9=A viola vai fritar - Lé e Felipe
TTITLE10=Na mesa do bar - Gabriel Gava
TTITLE11=Se você ama perda - Duda Duarte e Gabriel
TTITLE12=Não mereço essa vida - Valeria Barros
TTITLE13=Canto, bebo e choro - Humberto e Ronaldo
TTITLE14=Calma - Jorge e Mateus
TTITLE15=Cê que sabe - Cristiano Araujo
TTITLE16=Solteiro desapegado - Cleber e Cauan
TTITLE17=Gordinho saliente - Henrique e Juliano
TTITLE18=Molin Molin - Daniel Duran
TTITLE19=Tem que ter pegada - Zé Neto e Cristiano
TTITLE20=Quem pagou fui eu - Cuiabanno Lima
TTITLE21=Balada do DJ - Gustavo Moura e Rafael
TTITLE22=Sonhei com você/Estrada da vida - Milionário e José Rico
TTITLE23=Fio de cabelo/60 dias apaixonado - Chitãozinho e Xororó
TTITLE24=Desatino/Goias é mais - Valéria Barros
EXTD=
EXTT0=
EXTT1=
EXTT2=
EXTT3=
EXTT4=
EXTT5=
EXTT6=
EXTT7=
EXTT8=
EXTT9=
EXTT10=
EXTT11=
EXTT12=
EXTT13=
EXTT14=
EXTT15=
EXTT16=
EXTT17=
EXTT18=
EXTT19=
EXTT20=
EXTT21=
EXTT22=
EXTT23=
EXTT24=
PLAYORDER=
